<?xml version="1.0" encoding="UTF-8" standalone="no"?>
<!-- Created with Inkscape (http://www.inkscape.org/) -->

<svg
   width="1280"
   height="640"
   viewBox="0 0 338.66666 169.33334"
   version="1.1"
   id="svg8"
   inkscape:version="1.3.2 (091e20ef0f, 2023-11-25)"
   sodipodi:docname="nix-milano-owlise-2.svg"
   inkscape:export-filename="nixos-social-preview.png"
   inkscape:export-xdpi="96"
   inkscape:export-ydpi="96"
   xml:space="preserve"
   xmlns:inkscape="http://www.inkscape.org/namespaces/inkscape"
   xmlns:sodipodi="http://sodipodi.sourceforge.net/DTD/sodipodi-0.dtd"
   xmlns:xlink="http://www.w3.org/1999/xlink"
   xmlns="http://www.w3.org/2000/svg"
   xmlns:svg="http://www.w3.org/2000/svg"
   xmlns:rdf="http://www.w3.org/1999/02/22-rdf-syntax-ns#"
   xmlns:cc="http://creativecommons.org/ns#"
   xmlns:dc="http://purl.org/dc/elements/1.1/"><defs
     id="defs2"><linearGradient
       inkscape:collect="always"
       id="linearGradient982"><stop
         style="stop-color:#ffffff;stop-opacity:1"
         offset="0"
         id="stop978" /><stop
         style="stop-color:#f2f2f2;stop-opacity:1"
         offset="1"
         id="stop980" /></linearGradient><linearGradient
       inkscape:collect="always"
       xlink:href="#linearGradient982"
       id="linearGradient984"
       x1="69.839233"
       y1="171.99228"
       x2="69.839233"
       y2="252.61047"
       gradientUnits="userSpaceOnUse" /><linearGradient
       inkscape:collect="always"
       id="linearGradient5562"><stop
         style="stop-color:#699ad7;stop-opacity:1"
         offset="0"
         id="stop5564" /><stop
         id="stop5566"
         offset="0.24345198"
         style="stop-color:#7eb1dd;stop-opacity:1" /><stop
         style="stop-color:#7ebae4;stop-opacity:1"
         offset="1"
         id="stop5568" /></linearGradient><linearGradient
       inkscape:collect="always"
       id="linearGradient5053"><stop
         style="stop-color:#415e9a;stop-opacity:1"
         offset="0"
         id="stop5055" /><stop
         id="stop5057"
         offset="0.23168644"
         style="stop-color:#4a6baf;stop-opacity:1" /><stop
         style="stop-color:#5277c3;stop-opacity:1"
         offset="1"
         id="stop5059" /></linearGradient><linearGradient
       id="linearGradient5960"
       inkscape:collect="always"><stop
         id="stop5962"
         offset="0"
         style="stop-color:#637ddf;stop-opacity:1" /><stop
         style="stop-color:#649afa;stop-opacity:1"
         offset="0.23168644"
         id="stop5964" /><stop
         id="stop5966"
         offset="1"
         style="stop-color:#719efa;stop-opacity:1" /></linearGradient><linearGradient
       inkscape:collect="always"
       id="linearGradient5867"><stop
         style="stop-color:#7363df;stop-opacity:1"
         offset="0"
         id="stop5869" /><stop
         id="stop5871"
         offset="0.23168644"
         style="stop-color:#6478fa;stop-opacity:1" /><stop
         style="stop-color:#719efa;stop-opacity:1"
         offset="1"
         id="stop5873" /></linearGradient><linearGradient
       y2="515.97058"
       x2="282.26105"
       y1="338.62445"
       x1="213.95642"
       gradientTransform="translate(983.36076,601.38885)"
       gradientUnits="userSpaceOnUse"
       id="linearGradient5855"
       xlink:href="#linearGradient5960"
       inkscape:collect="always" /><linearGradient
       y2="515.97058"
       x2="282.26105"
       y1="338.62445"
       x1="213.95642"
       gradientTransform="translate(-197.75174,-337.1451)"
       gradientUnits="userSpaceOnUse"
       id="linearGradient5855-8"
       xlink:href="#linearGradient5867"
       inkscape:collect="always" /><linearGradient
       y2="247.58188"
       x2="-702.75317"
       y1="102.74675"
       x1="-775.20807"
       gradientTransform="translate(983.36076,601.38885)"
       gradientUnits="userSpaceOnUse"
       id="linearGradient4544"
       xlink:href="#linearGradient5960"
       inkscape:collect="always" /><clipPath
       id="clipPath4501"
       clipPathUnits="userSpaceOnUse"><circle
         r="241.06563"
         cy="686.09473"
         cx="335.13995"
         id="circle4503"
         style="color:#000000;clip-rule:nonzero;display:inline;overflow:visible;visibility:visible;opacity:1;isolation:auto;mix-blend-mode:normal;color-interpolation:sRGB;color-interpolation-filters:linearRGB;solid-color:#000000;solid-opacity:1;fill:#adadad;fill-opacity:1;fill-rule:evenodd;stroke:none;stroke-width:3;stroke-linecap:butt;stroke-linejoin:round;stroke-miterlimit:4;stroke-dasharray:none;stroke-dashoffset:0;stroke-opacity:1;marker:none;color-rendering:auto;image-rendering:auto;shape-rendering:auto;text-rendering:auto;enable-background:accumulate" /></clipPath><clipPath
       id="clipPath5410"
       clipPathUnits="userSpaceOnUse"><circle
         r="241.13741"
         cy="340.98975"
         cx="335.98114"
         id="circle5412"
         style="color:#000000;clip-rule:nonzero;display:inline;overflow:visible;visibility:visible;opacity:1;isolation:auto;mix-blend-mode:normal;color-interpolation:sRGB;color-interpolation-filters:linearRGB;solid-color:#000000;solid-opacity:1;fill:#ffffff;fill-opacity:1;fill-rule:evenodd;stroke:none;stroke-width:3;stroke-linecap:butt;stroke-linejoin:round;stroke-miterlimit:4;stroke-dasharray:none;stroke-dashoffset:0;stroke-opacity:1;marker:none;color-rendering:auto;image-rendering:auto;shape-rendering:auto;text-rendering:auto;enable-background:accumulate" /></clipPath><linearGradient
       inkscape:collect="always"
       xlink:href="#linearGradient5053"
       id="linearGradient5137"
       gradientUnits="userSpaceOnUse"
       gradientTransform="translate(864.55062,-2197.497)"
       x1="-584.19934"
       y1="782.33563"
       x2="-496.29703"
       y2="937.71399" /><linearGradient
       inkscape:collect="always"
       xlink:href="#linearGradient5562"
       id="linearGradient5162"
       gradientUnits="userSpaceOnUse"
       gradientTransform="translate(70.505061,-1761.3076)"
       x1="200.59668"
       y1="351.41116"
       x2="290.08701"
       y2="506.18814" /><linearGradient
       inkscape:collect="always"
       xlink:href="#linearGradient5562"
       id="linearGradient4328"
       gradientUnits="userSpaceOnUse"
       gradientTransform="translate(70.650339,-1055.1511)"
       x1="200.59668"
       y1="351.41116"
       x2="290.08701"
       y2="506.18814" /><linearGradient
       inkscape:collect="always"
       xlink:href="#linearGradient5053"
       id="linearGradient4330"
       gradientUnits="userSpaceOnUse"
       gradientTransform="translate(864.69589,-1491.3405)"
       x1="-584.19934"
       y1="782.33563"
       x2="-496.29703"
       y2="937.71399" /><linearGradient
       inkscape:collect="always"
       xlink:href="#linearGradient5960"
       id="linearGradient6"
       gradientUnits="userSpaceOnUse"
       gradientTransform="translate(983.36076,601.38885)"
       x1="213.95642"
       y1="338.62445"
       x2="282.26105"
       y2="515.97058" /></defs><sodipodi:namedview
     id="base"
     pagecolor="#ffffff"
     bordercolor="#666666"
     borderopacity="1.0"
     inkscape:pageopacity="1"
     inkscape:pageshadow="2"
     inkscape:zoom="1.4773437"
     inkscape:cx="640"
     inkscape:cy="302.57007"
     inkscape:document-units="px"
     inkscape:current-layer="layer1"
     showgrid="false"
     units="px"
     inkscape:pagecheckerboard="false"
     inkscape:showpageshadow="false"
     inkscape:deskcolor="#d1d1d1"
     inkscape:window-width="2558"
     inkscape:window-height="1404"
     inkscape:window-x="0"
     inkscape:window-y="0"
     inkscape:window-maximized="1" /><metadata
     id="metadata5"><rdf:RDF><cc:Work
         rdf:about=""><dc:format>image/svg+xml</dc:format><dc:type
           rdf:resource="http://purl.org/dc/dcmitype/StillImage" /><dc:title /></cc:Work></rdf:RDF></metadata><g
     inkscape:label="Layer 1"
     inkscape:groupmode="layer"
     id="layer1"
     transform="translate(0,-127.66666)"
     style="display:inline"><rect
       style="display:inline;opacity:1;vector-effect:none;fill:url(#linearGradient984);fill-opacity:1;stroke:none;stroke-width:1.13793;stroke-linecap:square;stroke-linejoin:miter;stroke-miterlimit:4;stroke-dasharray:none;stroke-dashoffset:0;stroke-opacity:0.47;paint-order:fill markers stroke"
       id="rect976"
       width="338.66666"
       height="169.33333"
       x="0"
       y="127.66665" /><text
       xml:space="preserve"
       style="font-size:50.8px;font-family:Vegur;-inkscape-font-specification:Vegur;display:inline;fill:#000000;stroke-width:0.264583"
       x="125.00272"
       y="171.77388"
       id="text1"><tspan
         sodipodi:role="line"
         id="tspan1"
         style="stroke-width:0.264583"
         x="125.00272"
         y="171.77388"
         dy="20">Nix</tspan><tspan
         sodipodi:role="line"
         style="stroke-width:0.264583"
         x="125.00272"
         y="235.27388"
         id="tspan2">Milano</tspan></text><g
       id="g6"
       transform="matrix(0.17956409,0,0,0.17956409,27.852315,173.06322)"
       style="display:inline"><g
         id="layer7"
         inkscape:label="bg"
         style="display:none"
         transform="translate(-23.75651,-24.84972)"><rect
           transform="translate(-132.5822,958.04022)"
           style="color:#000000;clip-rule:nonzero;display:inline;overflow:visible;visibility:visible;opacity:1;isolation:auto;mix-blend-mode:normal;color-interpolation:sRGB;color-interpolation-filters:linearRGB;solid-color:#000000;solid-opacity:1;fill:#ffffff;fill-opacity:1;fill-rule:evenodd;stroke:none;stroke-width:3;stroke-linecap:butt;stroke-linejoin:round;stroke-miterlimit:4;stroke-dasharray:none;stroke-dashoffset:0;stroke-opacity:1;marker:none;color-rendering:auto;image-rendering:auto;shape-rendering:auto;text-rendering:auto;enable-background:accumulate"
           id="rect5389"
           width="1543.4283"
           height="483.7439"
           x="132.5822"
           y="-957.77832" /></g><g
         id="layer6"
         inkscape:label="logo-guide"
         style="display:none"
         transform="translate(-156.33871,933.1905)"><rect
           y="-958.02759"
           x="132.65129"
           height="484.30399"
           width="550.41602"
           id="rect5379"
           style="color:#000000;clip-rule:nonzero;display:inline;overflow:visible;visibility:visible;opacity:1;isolation:auto;mix-blend-mode:normal;color-interpolation:sRGB;color-interpolation-filters:linearRGB;solid-color:#000000;solid-opacity:1;fill:#5c201e;fill-opacity:1;fill-rule:evenodd;stroke:none;stroke-width:3;stroke-linecap:butt;stroke-linejoin:round;stroke-miterlimit:4;stroke-dasharray:none;stroke-dashoffset:0;stroke-opacity:1;marker:none;color-rendering:auto;image-rendering:auto;shape-rendering:auto;text-rendering:auto;enable-background:accumulate"
           inkscape:export-filename="/home/tim/dev/nix/homepage/logo/nix-wiki.png"
           inkscape:export-xdpi="22.07"
           inkscape:export-ydpi="22.07" /><rect
           style="color:#000000;clip-rule:nonzero;display:inline;overflow:visible;visibility:visible;opacity:1;isolation:auto;mix-blend-mode:normal;color-interpolation:sRGB;color-interpolation-filters:linearRGB;solid-color:#000000;solid-opacity:1;fill:#c24a46;fill-opacity:1;fill-rule:evenodd;stroke:none;stroke-width:3;stroke-linecap:butt;stroke-linejoin:round;stroke-miterlimit:4;stroke-dasharray:none;stroke-dashoffset:0;stroke-opacity:1;marker:none;color-rendering:auto;image-rendering:auto;shape-rendering:auto;text-rendering:auto;enable-background:accumulate"
           id="rect5372"
           width="501.94415"
           height="434.30405"
           x="156.12303"
           y="-933.02759"
           inkscape:export-filename="/home/tim/dev/nix/homepage/logo/nixos-logo-only-hires-print.png"
           inkscape:export-xdpi="212.2"
           inkscape:export-ydpi="212.2" /><rect
           style="color:#000000;clip-rule:nonzero;display:inline;overflow:visible;visibility:visible;opacity:1;isolation:auto;mix-blend-mode:normal;color-interpolation:sRGB;color-interpolation-filters:linearRGB;solid-color:#000000;solid-opacity:1;fill:#d98d8a;fill-opacity:1;fill-rule:evenodd;stroke:none;stroke-width:3;stroke-linecap:butt;stroke-linejoin:round;stroke-miterlimit:4;stroke-dasharray:none;stroke-dashoffset:0;stroke-opacity:1;marker:none;color-rendering:auto;image-rendering:auto;shape-rendering:auto;text-rendering:auto;enable-background:accumulate"
           id="rect5381"
           width="24.939611"
           height="24.939611"
           x="658.02826"
           y="-958.04022" /></g><g
         inkscape:label="print-logo upper"
         id="g13"
         style="display:inline"
         transform="translate(-156.33871,933.1905)"><path
           style="color:#000000;clip-rule:nonzero;display:inline;overflow:visible;visibility:visible;opacity:1;isolation:auto;mix-blend-mode:normal;color-interpolation:sRGB;color-interpolation-filters:linearRGB;solid-color:#000000;solid-opacity:1;fill:#7ebae4;fill-opacity:1;fill-rule:evenodd;stroke:none;stroke-width:3;stroke-linecap:butt;stroke-linejoin:round;stroke-miterlimit:4;stroke-dasharray:none;stroke-dashoffset:0;stroke-opacity:1;color-rendering:auto;image-rendering:auto;shape-rendering:auto;text-rendering:auto;enable-background:accumulate"
           d="m 353.50926,-797.4433 -122.21756,211.6631 -28.53477,-48.37 32.93839,-56.6875 -65.41521,-0.1719 -13.9414,-24.1698 14.23637,-24.721 93.11177,0.2939 33.46371,-57.6903 z"
           id="path3"
           inkscape:connector-curvature="0"
           sodipodi:nodetypes="cccccccccc" /><path
           style="color:#000000;clip-rule:nonzero;display:inline;overflow:visible;visibility:visible;opacity:1;isolation:auto;mix-blend-mode:normal;color-interpolation:sRGB;color-interpolation-filters:linearRGB;solid-color:#000000;solid-opacity:1;fill:#7ebae4;fill-opacity:1;fill-rule:evenodd;stroke:none;stroke-width:3;stroke-linecap:butt;stroke-linejoin:round;stroke-miterlimit:4;stroke-dasharray:none;stroke-dashoffset:0;stroke-opacity:1;color-rendering:auto;image-rendering:auto;shape-rendering:auto;text-rendering:auto;enable-background:accumulate"
           d="m 505.14318,-720.9886 -122.19683,-211.6751 56.15706,-0.5268 32.6236,56.8692 32.85645,-56.5653 27.90237,0.011 14.29086,24.6896 -46.81047,80.4902 33.22946,57.8256 z"
           id="path5"
           inkscape:connector-curvature="0"
           sodipodi:nodetypes="cccccccccc" /><path
           sodipodi:nodetypes="cccccccccc"
           inkscape:connector-curvature="0"
           id="path7"
           d="m 451.3364,-803.53264 -244.4144,-0.012 27.62229,-48.89685 65.56199,0.18175 -32.55875,-56.73717 13.96097,-24.15851 28.52722,-0.0315 46.3013,80.78414 66.69317,0.13524 z"
           style="color:#000000;clip-rule:nonzero;display:inline;overflow:visible;visibility:visible;opacity:1;isolation:auto;mix-blend-mode:normal;color-interpolation:sRGB;color-interpolation-filters:linearRGB;solid-color:#000000;solid-opacity:1;fill:#5277c3;fill-opacity:1;fill-rule:evenodd;stroke:none;stroke-width:3;stroke-linecap:butt;stroke-linejoin:round;stroke-miterlimit:4;stroke-dasharray:none;stroke-dashoffset:0;stroke-opacity:1;color-rendering:auto;image-rendering:auto;shape-rendering:auto;text-rendering:auto;enable-background:accumulate" /><g
           id="g12"
           inkscape:label="guides"
           style="display:none"
           transform="translate(72.039038,-1799.4476)"><path
             d="M 460.60629,594.72881 209.74183,594.7288 84.309616,377.4738 209.74185,160.21882 l 250.86446,1e-5 125.43222,217.255 z"
             inkscape:randomized="0"
             inkscape:rounded="0"
             inkscape:flatsided="true"
             sodipodi:arg2="1.5707963"
             sodipodi:arg1="1.0471976"
             sodipodi:r2="217.25499"
             sodipodi:r1="250.86446"
             sodipodi:cy="377.47382"
             sodipodi:cx="335.17407"
             sodipodi:sides="6"
             id="path9"
             style="color:#000000;display:inline;overflow:visible;visibility:visible;opacity:0.236;fill:#4e4d52;fill-opacity:1;fill-rule:nonzero;stroke:none;stroke-width:3;stroke-linecap:butt;stroke-linejoin:round;stroke-miterlimit:4;stroke-dasharray:none;stroke-dashoffset:0;stroke-opacity:1;marker:none;enable-background:accumulate"
             sodipodi:type="star" /><path
             transform="translate(0,-308.26772)"
             sodipodi:type="star"
             style="color:#000000;display:inline;overflow:visible;visibility:visible;opacity:1;fill:#4e4d52;fill-opacity:1;fill-rule:nonzero;stroke:none;stroke-width:3;stroke-linecap:butt;stroke-linejoin:round;stroke-miterlimit:4;stroke-dasharray:none;stroke-dashoffset:0;stroke-opacity:1;marker:none;enable-background:accumulate"
             id="path10"
             sodipodi:sides="6"
             sodipodi:cx="335.17407"
             sodipodi:cy="685.74158"
             sodipodi:r1="100.83495"
             sodipodi:r2="87.32563"
             sodipodi:arg1="1.0471976"
             sodipodi:arg2="1.5707963"
             inkscape:flatsided="true"
             inkscape:rounded="0"
             inkscape:randomized="0"
             d="m 385.59154,773.06721 -100.83495,0 -50.41747,-87.32564 50.41748,-87.32563 100.83495,10e-6 50.41748,87.32563 z" /><path
             transform="translate(0,-308.26772)"
             sodipodi:nodetypes="ccccccccc"
             inkscape:connector-curvature="0"
             id="path11"
             d="m 1216.5591,938.53395 123.0545,228.14035 -42.6807,-1.2616 -43.4823,-79.7725 -39.6506,80.3267 -32.6875,-19.7984 53.4737,-100.2848 -37.1157,-73.88955 z"
             style="fill:url(#linearGradient6);fill-opacity:1;fill-rule:evenodd;stroke:none;stroke-width:3;stroke-linecap:butt;stroke-linejoin:round;stroke-miterlimit:4;stroke-dasharray:none;stroke-opacity:1" /><rect
             style="color:#000000;clip-rule:nonzero;display:inline;overflow:visible;visibility:visible;opacity:0.415;isolation:auto;mix-blend-mode:normal;color-interpolation:sRGB;color-interpolation-filters:linearRGB;solid-color:#000000;solid-opacity:1;fill:#c53a3a;fill-opacity:1;fill-rule:nonzero;stroke:none;stroke-width:3;stroke-linecap:butt;stroke-linejoin:round;stroke-miterlimit:4;stroke-dasharray:none;stroke-dashoffset:0;stroke-opacity:1;marker:none;color-rendering:auto;image-rendering:auto;shape-rendering:auto;text-rendering:auto;enable-background:accumulate"
             id="rect11"
             width="48.834862"
             height="226.22897"
             x="-34.74221"
             y="446.17056"
             transform="rotate(-30)" /><path
             transform="translate(0,-308.26772)"
             sodipodi:type="star"
             style="color:#000000;clip-rule:nonzero;display:inline;overflow:visible;visibility:visible;opacity:0.509;isolation:auto;mix-blend-mode:normal;color-interpolation:sRGB;color-interpolation-filters:linearRGB;solid-color:#000000;solid-opacity:1;fill:#000000;fill-opacity:1;fill-rule:evenodd;stroke:none;stroke-width:3;stroke-linecap:butt;stroke-linejoin:round;stroke-miterlimit:4;stroke-dasharray:none;stroke-dashoffset:0;stroke-opacity:1;marker:none;color-rendering:auto;image-rendering:auto;shape-rendering:auto;text-rendering:auto;enable-background:accumulate"
             id="path12"
             sodipodi:sides="6"
             sodipodi:cx="223.93674"
             sodipodi:cy="878.63831"
             sodipodi:r1="28.048939"
             sodipodi:r2="24.291094"
             sodipodi:arg1="0"
             sodipodi:arg2="0.52359878"
             inkscape:flatsided="true"
             inkscape:rounded="0"
             inkscape:randomized="0"
             d="m 251.98568,878.63831 -14.02447,24.29109 h -28.04894 l -14.02447,-24.29109 14.02447,-24.2911 h 28.04894 z" /><use
             x="0"
             y="0"
             xlink:href="#rect5884"
             id="use12"
             transform="rotate(60,268.29786,489.4515)"
             width="100%"
             height="100%" /><rect
             style="color:#000000;clip-rule:nonzero;display:inline;overflow:visible;visibility:visible;opacity:1;isolation:auto;mix-blend-mode:normal;color-interpolation:sRGB;color-interpolation-filters:linearRGB;solid-color:#000000;solid-opacity:1;fill:#000000;fill-opacity:0.650794;fill-rule:evenodd;stroke:none;stroke-width:1px;stroke-linecap:butt;stroke-linejoin:miter;stroke-miterlimit:4;stroke-dasharray:none;stroke-dashoffset:0;stroke-opacity:1;marker:none;color-rendering:auto;image-rendering:auto;shape-rendering:auto;text-rendering:auto;enable-background:accumulate"
             id="rect12"
             width="5.3947482"
             height="115.12564"
             x="545.71014"
             y="467.07007"
             transform="rotate(30,575.23539,-154.13386)" /></g></g><g
         id="g21"
         inkscape:label="gradient-logo upper"
         style="display:inline;opacity:1"
         transform="translate(-156.33871,933.1905)"><use
           height="100%"
           width="100%"
           transform="rotate(60,407.11155,-715.78724)"
           id="use17"
           inkscape:transform-center-y="151.59082"
           inkscape:transform-center-x="124.43045"
           xlink:href="#path3336-6"
           y="0"
           x="0" /><use
           height="100%"
           width="100%"
           transform="rotate(180,407.41868,-715.7565)"
           id="use19"
           inkscape:transform-center-y="-139.94592"
           inkscape:transform-center-x="59.669705"
           xlink:href="#path3336-6"
           y="0"
           x="0" /><use
           height="100%"
           width="100%"
           transform="rotate(120,407.33916,-716.08356)"
           id="use20"
           xlink:href="#path4260-0"
           y="0"
           x="0"
           style="display:inline" /></g><g
         style="display:inline;fill:#000000"
         id="g2"
         transform="matrix(6.0647366,0,0,6.0647366,156.83876,114.79374)"
         inkscape:label="duomo"><path
           id="milan--duomo-di-milano"
           d="m 14.36,23.36 h 3.28 V 24 h 0.721 v -6 c 0,-0.096 -0.038,-0.188 -0.105,-0.255 l -2,-2 c -0.141,-0.141 -0.368,-0.141 -0.509,0 l -2,2 C 13.678,17.812 13.64,17.904 13.64,18 v 6 h 0.72 c 0,0 0,-0.64 0,-0.64 z m 1.64,-6.851 1.64,1.64 v 4.49 h -3.28 v -4.49 z m 14.352,0.447 C 30.35,16.941 30.354,16.927 30.35,16.912 L 29.361,12.955 V 8 C 29.361,7.801 29.2,7.64 29.001,7.64 28.802,7.64 28.64,7.801 28.64,8 v 4.956 l -0.989,3.957 c -0.004,0.015 0,0.029 -0.002,0.044 C 27.647,16.971 27.64,16.985 27.64,17 v 1.13 L 24.361,14.851 V 10 C 24.361,9.985 24.354,9.971 24.352,9.956 24.35,9.941 24.354,9.927 24.35,9.912 L 23.36,5.956 V 1 C 23.36,0.801 23.199,0.64 23,0.64 22.801,0.64 22.64,0.801 22.64,1 V 5.956 L 22,8.516 21.36,5.956 V 1 C 21.36,0.801 21.199,0.64 21,0.64 20.801,0.64 20.64,0.801 20.64,1 v 4.956 l -0.99,3.957 c -0.004,0.015 0,0.029 -0.002,0.044 C 19.647,9.971 19.64,9.985 19.64,10 v 0.13 L 18.36,8.851 V 6 C 18.36,5.801 18.199,5.64 18,5.64 17.801,5.64 17.64,5.801 17.64,6 V 8.131 L 16.36,6.851 V 4 C 16.36,3.801 16.199,3.64 16,3.64 15.801,3.64 15.64,3.801 15.64,4 v 2.851 l -1.28,1.28 V 6 C 14.36,5.801 14.199,5.64 14,5.64 13.801,5.64 13.64,5.801 13.64,6 v 2.851 l -1.28,1.28 V 10 C 12.36,9.985 12.353,9.972 12.351,9.957 12.349,9.942 12.353,9.928 12.349,9.913 L 11.36,5.956 V 1 C 11.36,0.801 11.199,0.64 11,0.64 10.801,0.64 10.64,0.801 10.64,1 V 5.956 L 10,8.516 9.36,5.956 V 1 C 9.36,0.801 9.199,0.64 9,0.64 8.801,0.64 8.64,0.801 8.64,1 V 5.956 L 7.651,9.913 C 7.647,9.928 7.651,9.942 7.649,9.957 7.647,9.972 7.64,9.985 7.64,10 v 4.851 l -3.28,3.28 V 17 C 4.36,16.985 4.353,16.972 4.351,16.957 4.349,16.942 4.353,16.928 4.349,16.913 L 3.36,12.956 V 8 C 3.36,7.801 3.199,7.64 3,7.64 2.801,7.64 2.64,7.801 2.64,8 v 4.956 l -0.989,3.957 c -0.004,0.015 0,0.029 -0.002,0.044 C 1.647,16.972 1.64,16.985 1.64,17 v 14 c 0,0.199 0.161,0.36 0.36,0.36 h 2 c 0.199,0 0.36,-0.161 0.36,-0.36 V 29.36 H 7.64 V 31 c 0,0.199 0.161,0.36 0.36,0.36 h 4 8 4 c 0.199,0 0.36,-0.161 0.36,-0.36 v -1.64 h 3.279 V 31 c 0,0.199 0.161,0.36 0.36,0.36 h 2 c 0.199,0 0.36,-0.161 0.36,-0.36 V 17 C 30.36,16.985 30.353,16.971 30.352,16.956 Z M 29,14.484 29.539,16.64 h -1.078 z m -1.36,4.665 v 3.49 H 26.36 V 19 c 0,-0.199 -0.161,-0.36 -0.36,-0.36 -0.199,0 -0.36,0.161 -0.36,0.36 v 3.64 H 24.36 V 15.87 Z M 22,11.64 c -0.199,0 -0.36,0.161 -0.36,0.36 v 10.5 c 0,0.05 0.01,0.097 0.028,0.14 H 20.36 V 14 12 10.36 h 3.279 V 22.64 H 22.332 C 22.35,22.597 22.36,22.55 22.36,22.5 V 12 c 0,-0.199 -0.161,-0.36 -0.36,-0.36 z m -11,11 H 10.332 C 10.35,22.597 10.36,22.55 10.36,22.5 V 12 c 0,-0.199 -0.161,-0.36 -0.36,-0.36 -0.199,0 -0.36,0.161 -0.36,0.36 v 10.5 c 0,0.05 0.01,0.097 0.028,0.14 H 8.36 V 10.36 h 3.28 V 12 14 22.64 Z M 9,7.484 9.539,9.64 H 8.461 Z m 2,0 0.539,2.156 h -1.078 z m 8.64,4.876 v 1.28 H 12.36 V 12.36 Z M 21,7.484 21.539,9.64 h -1.077 z m 2,0 0.539,2.156 H 22.462 Z M 12.36,23 v -8.64 h 7.28 V 23 26.64 h -1.49 l -1.895,-1.895 c -0.141,-0.141 -0.368,-0.141 -0.509,0 L 13.851,26.64 H 12.36 Z m 4.77,3.64 H 14.87 L 16,25.509 Z m 0.51,0.72 v 3.279 H 14.36 V 27.36 Z m 0.72,0 h 1.279 v 3.279 H 18.36 Z M 16,7.509 17.745,9.254 v 0 l 1.894,1.894 v 0.491 H 18.36 V 11 c 0,-0.199 -0.161,-0.36 -0.36,-0.36 -0.199,0 -0.36,0.161 -0.36,0.36 v 0.64 H 16.36 V 10 C 16.36,9.801 16.199,9.64 16,9.64 15.801,9.64 15.64,9.801 15.64,10 v 1.64 H 14.36 V 11 c 0,-0.199 -0.161,-0.36 -0.36,-0.36 -0.199,0 -0.36,0.161 -0.36,0.36 v 0.64 h -1.28 v -0.491 z m -8.36,8.36 V 22.64 H 6.36 V 19 C 6.36,18.801 6.199,18.64 6,18.64 5.801,18.64 5.64,18.801 5.64,19 v 3.64 H 4.36 V 19.15 Z M 3,14.484 3.539,16.64 H 2.461 Z M 3.64,30.64 H 2.36 V 17.36 h 1.28 c 0,0 0,13.28 0,13.28 z m 2.72,-2 V 25 C 6.36,24.801 6.199,24.64 6,24.64 5.801,24.64 5.64,24.801 5.64,25 v 3.64 H 4.36 v -5.28 h 3.28 v 5.279 z m 2,-5.28 H 11 11.64 v 7.279 H 10.36 V 25 c 0,-0.199 -0.161,-0.36 -0.36,-0.36 -0.199,0 -0.36,0.161 -0.36,0.36 v 5.64 H 8.36 Z m 4,4 h 1.28 v 3.279 h -1.28 z m 11.28,3.28 H 22.36 V 25 c 0,-0.199 -0.161,-0.36 -0.36,-0.36 -0.199,0 -0.36,0.161 -0.36,0.36 v 5.64 h -1.28 v -7.28 h 3.279 z m 2.72,-2 V 25 c 0,-0.199 -0.161,-0.36 -0.36,-0.36 -0.199,0 -0.36,0.161 -0.36,0.36 v 3.64 h -1.28 v -5.28 h 3.279 v 5.279 z m 3.28,2 H 28.36 V 17.36 h 1.279 z" /><rect
           id="_Transparent_Rectangle"
           style="fill:none"
           width="32"
           height="32"
           x="0"
           y="0" /></g><g
         inkscape:label="print-logo"
         id="layer1-6"
         style="display:inline"
         transform="translate(-156.33871,933.1905)"><path
           style="color:#000000;clip-rule:nonzero;display:inline;overflow:visible;visibility:visible;opacity:1;isolation:auto;mix-blend-mode:normal;color-interpolation:sRGB;color-interpolation-filters:linearRGB;solid-color:#000000;solid-opacity:1;fill:#5277c3;fill-opacity:1;fill-rule:evenodd;stroke:none;stroke-width:3;stroke-linecap:butt;stroke-linejoin:round;stroke-miterlimit:4;stroke-dasharray:none;stroke-dashoffset:0;stroke-opacity:1;color-rendering:auto;image-rendering:auto;shape-rendering:auto;text-rendering:auto;enable-background:accumulate"
           d="m 309.40365,-710.2521 122.19683,211.6751 -56.15706,0.5268 -32.6236,-56.8692 -32.85645,56.5653 -27.90237,-0.011 -14.29086,-24.6896 46.81047,-80.4902 -33.22946,-57.8256 z"
           id="path4861"
           inkscape:connector-curvature="0"
           sodipodi:nodetypes="cccccccccc" /><path
           style="color:#000000;clip-rule:nonzero;display:inline;overflow:visible;visibility:visible;opacity:1;isolation:auto;mix-blend-mode:normal;color-interpolation:sRGB;color-interpolation-filters:linearRGB;solid-color:#000000;solid-opacity:1;fill:#7ebae4;fill-opacity:1;fill-rule:evenodd;stroke:none;stroke-width:3;stroke-linecap:butt;stroke-linejoin:round;stroke-miterlimit:4;stroke-dasharray:none;stroke-dashoffset:0;stroke-opacity:1;color-rendering:auto;image-rendering:auto;shape-rendering:auto;text-rendering:auto;enable-background:accumulate"
           d="m 362.88537,-628.243 244.41439,0.012 -27.62229,48.8968 -65.56199,-0.1817 32.55876,56.7371 -13.96098,24.1585 -28.52722,0.032 -46.3013,-80.7841 -66.69317,-0.1353 z"
           id="use4865"
           inkscape:connector-curvature="0"
           sodipodi:nodetypes="cccccccccc" /><path
           sodipodi:nodetypes="cccccccccc"
           inkscape:connector-curvature="0"
           id="path4873"
           d="m 309.40365,-710.2521 122.19683,211.6751 -56.15706,0.5268 -32.6236,-56.8692 -32.85645,56.5653 -27.90237,-0.011 -14.29086,-24.6896 46.81047,-80.4902 -33.22946,-57.8256 z"
           style="color:#000000;clip-rule:nonzero;display:inline;overflow:visible;visibility:visible;opacity:1;isolation:auto;mix-blend-mode:normal;color-interpolation:sRGB;color-interpolation-filters:linearRGB;solid-color:#000000;solid-opacity:1;fill:#5277c3;fill-opacity:1;fill-rule:evenodd;stroke:none;stroke-width:3;stroke-linecap:butt;stroke-linejoin:round;stroke-miterlimit:4;stroke-dasharray:none;stroke-dashoffset:0;stroke-opacity:1;color-rendering:auto;image-rendering:auto;shape-rendering:auto;text-rendering:auto;enable-background:accumulate" /><path
           sodipodi:nodetypes="cccccccccc"
           inkscape:connector-curvature="0"
           id="use4877"
           d="m 460.87178,-633.8425 122.21757,-211.66304 28.53477,48.37003 -32.93839,56.68751 65.4152,0.1718 13.9414,24.1698 -14.23636,24.7211 -93.11177,-0.294 -33.46371,57.6904 z"
           style="color:#000000;clip-rule:nonzero;display:inline;overflow:visible;visibility:visible;opacity:1;isolation:auto;mix-blend-mode:normal;color-interpolation:sRGB;color-interpolation-filters:linearRGB;solid-color:#000000;solid-opacity:1;fill:#5277c3;fill-opacity:1;fill-rule:evenodd;stroke:none;stroke-width:3;stroke-linecap:butt;stroke-linejoin:round;stroke-miterlimit:4;stroke-dasharray:none;stroke-dashoffset:0;stroke-opacity:1;color-rendering:auto;image-rendering:auto;shape-rendering:auto;text-rendering:auto;enable-background:accumulate" /><g
           id="layer2"
           inkscape:label="guides"
           style="display:none"
           transform="translate(72.039038,-1799.4476)"><path
             d="M 460.60629,594.72881 209.74183,594.7288 84.309616,377.4738 209.74185,160.21882 l 250.86446,1e-5 125.43222,217.255 z"
             inkscape:randomized="0"
             inkscape:rounded="0"
             inkscape:flatsided="true"
             sodipodi:arg2="1.5707963"
             sodipodi:arg1="1.0471976"
             sodipodi:r2="217.25499"
             sodipodi:r1="250.86446"
             sodipodi:cy="377.47382"
             sodipodi:cx="335.17407"
             sodipodi:sides="6"
             id="path6032"
             style="color:#000000;display:inline;overflow:visible;visibility:visible;opacity:0.236;fill:#4e4d52;fill-opacity:1;fill-rule:nonzero;stroke:none;stroke-width:3;stroke-linecap:butt;stroke-linejoin:round;stroke-miterlimit:4;stroke-dasharray:none;stroke-dashoffset:0;stroke-opacity:1;marker:none;enable-background:accumulate"
             sodipodi:type="star" /><path
             transform="translate(0,-308.26772)"
             sodipodi:type="star"
             style="color:#000000;display:inline;overflow:visible;visibility:visible;opacity:1;fill:#4e4d52;fill-opacity:1;fill-rule:nonzero;stroke:none;stroke-width:3;stroke-linecap:butt;stroke-linejoin:round;stroke-miterlimit:4;stroke-dasharray:none;stroke-dashoffset:0;stroke-opacity:1;marker:none;enable-background:accumulate"
             id="path5875"
             sodipodi:sides="6"
             sodipodi:cx="335.17407"
             sodipodi:cy="685.74158"
             sodipodi:r1="100.83495"
             sodipodi:r2="87.32563"
             sodipodi:arg1="1.0471976"
             sodipodi:arg2="1.5707963"
             inkscape:flatsided="true"
             inkscape:rounded="0"
             inkscape:randomized="0"
             d="m 385.59154,773.06721 -100.83495,0 -50.41747,-87.32564 50.41748,-87.32563 100.83495,10e-6 50.41748,87.32563 z" /><path
             transform="translate(0,-308.26772)"
             sodipodi:nodetypes="ccccccccc"
             inkscape:connector-curvature="0"
             id="path5851"
             d="m 1216.5591,938.53395 123.0545,228.14035 -42.6807,-1.2616 -43.4823,-79.7725 -39.6506,80.3267 -32.6875,-19.7984 53.4737,-100.2848 -37.1157,-73.88955 z"
             style="fill:url(#linearGradient5855);fill-opacity:1;fill-rule:evenodd;stroke:none;stroke-width:3;stroke-linecap:butt;stroke-linejoin:round;stroke-miterlimit:4;stroke-dasharray:none;stroke-opacity:1" /><rect
             style="color:#000000;clip-rule:nonzero;display:inline;overflow:visible;visibility:visible;opacity:0.415;isolation:auto;mix-blend-mode:normal;color-interpolation:sRGB;color-interpolation-filters:linearRGB;solid-color:#000000;solid-opacity:1;fill:#c53a3a;fill-opacity:1;fill-rule:nonzero;stroke:none;stroke-width:3;stroke-linecap:butt;stroke-linejoin:round;stroke-miterlimit:4;stroke-dasharray:none;stroke-dashoffset:0;stroke-opacity:1;marker:none;color-rendering:auto;image-rendering:auto;shape-rendering:auto;text-rendering:auto;enable-background:accumulate"
             id="rect5884"
             width="48.834862"
             height="226.22897"
             x="-34.74221"
             y="446.17056"
             transform="rotate(-30)" /><path
             transform="translate(0,-308.26772)"
             sodipodi:type="star"
             style="color:#000000;clip-rule:nonzero;display:inline;overflow:visible;visibility:visible;opacity:0.509;isolation:auto;mix-blend-mode:normal;color-interpolation:sRGB;color-interpolation-filters:linearRGB;solid-color:#000000;solid-opacity:1;fill:#000000;fill-opacity:1;fill-rule:evenodd;stroke:none;stroke-width:3;stroke-linecap:butt;stroke-linejoin:round;stroke-miterlimit:4;stroke-dasharray:none;stroke-dashoffset:0;stroke-opacity:1;marker:none;color-rendering:auto;image-rendering:auto;shape-rendering:auto;text-rendering:auto;enable-background:accumulate"
             id="path3428"
             sodipodi:sides="6"
             sodipodi:cx="223.93674"
             sodipodi:cy="878.63831"
             sodipodi:r1="28.048939"
             sodipodi:r2="24.291094"
             sodipodi:arg1="0"
             sodipodi:arg2="0.52359878"
             inkscape:flatsided="true"
             inkscape:rounded="0"
             inkscape:randomized="0"
             d="m 251.98568,878.63831 -14.02447,24.29109 h -28.04894 l -14.02447,-24.29109 14.02447,-24.2911 h 28.04894 z" /><use
             x="0"
             y="0"
             xlink:href="#rect5884"
             id="use4252"
             transform="rotate(60,268.29786,489.4515)"
             width="100%"
             height="100%" /><rect
             style="color:#000000;clip-rule:nonzero;display:inline;overflow:visible;visibility:visible;opacity:1;isolation:auto;mix-blend-mode:normal;color-interpolation:sRGB;color-interpolation-filters:linearRGB;solid-color:#000000;solid-opacity:1;fill:#000000;fill-opacity:0.650794;fill-rule:evenodd;stroke:none;stroke-width:1px;stroke-linecap:butt;stroke-linejoin:miter;stroke-miterlimit:4;stroke-dasharray:none;stroke-dashoffset:0;stroke-opacity:1;marker:none;color-rendering:auto;image-rendering:auto;shape-rendering:auto;text-rendering:auto;enable-background:accumulate"
             id="rect4254"
             width="5.3947482"
             height="115.12564"
             x="545.71014"
             y="467.07007"
             transform="rotate(30,575.23539,-154.13386)" /></g></g><g
         id="layer3"
         inkscape:label="gradient-logo"
         style="display:inline;opacity:1"
         transform="translate(-156.33871,933.1905)"><path
           sodipodi:nodetypes="cccccccccc"
           inkscape:connector-curvature="0"
           id="path3336-6"
           d="m 309.54892,-710.38827 122.19683,211.67512 -56.15706,0.5268 -32.6236,-56.8692 -32.85645,56.5653 -27.90237,-0.011 -14.29086,-24.6896 46.81047,-80.4901 -33.22946,-57.8257 z"
           style="opacity:1;fill:url(#linearGradient4328);fill-opacity:1;fill-rule:evenodd;stroke:none;stroke-width:3;stroke-linecap:butt;stroke-linejoin:round;stroke-miterlimit:4;stroke-dasharray:none;stroke-opacity:1" /><use
           height="100%"
           width="100%"
           transform="rotate(-60,407.31177,-715.70016)"
           id="use3445-0"
           inkscape:transform-center-y="75.573958"
           inkscape:transform-center-x="-168.20651"
           xlink:href="#path3336-6"
           y="0"
           x="0" /><path
           style="color:#000000;clip-rule:nonzero;display:inline;overflow:visible;visibility:visible;opacity:1;isolation:auto;mix-blend-mode:normal;color-interpolation:sRGB;color-interpolation-filters:linearRGB;solid-color:#000000;solid-opacity:1;fill:url(#linearGradient4330);fill-opacity:1;fill-rule:evenodd;stroke:none;stroke-width:3;stroke-linecap:butt;stroke-linejoin:round;stroke-miterlimit:4;stroke-dasharray:none;stroke-dashoffset:0;stroke-opacity:1;color-rendering:auto;image-rendering:auto;shape-rendering:auto;text-rendering:auto;enable-background:accumulate"
           d="m 309.54892,-710.38827 122.19683,211.67512 -56.15706,0.5268 -32.6236,-56.8692 -32.85645,56.5653 -27.90237,-0.011 -14.29086,-24.6896 46.81047,-80.4901 -33.22946,-57.8256 z"
           id="path4260-0"
           inkscape:connector-curvature="0"
           sodipodi:nodetypes="cccccccccc" /><use
           height="100%"
           width="100%"
           transform="rotate(-120,407.28823,-715.86995)"
           id="use4362-2"
           xlink:href="#path4260-0"
           y="0"
           x="0"
           style="display:inline" /></g><g
         id="layer4"
         inkscape:label="Layer 1"
         style="display:none" /></g><text
       xml:space="preserve"
       style="font-size:12.3374px;font-family:Vegur;-inkscape-font-specification:Vegur;fill:#4d4d4d;stroke-width:0.165233"
       x="127.85406"
       y="259.63065"
       id="text6"><tspan
         sodipodi:role="line"
         id="tspan6"
         style="font-size:12.3374px;fill:#4d4d4d;stroke-width:0.165233"
         x="127.85406"
         y="259.63065">Hosted by</tspan></text><g
       id="g7"
       transform="matrix(0.18592792,0,0,0.18592792,181.13949,241.67962)"
       style="fill:#4d4d4d"><g
         id="Symbol"
         style="fill:#4d4d4d">
	<circle
   cx="57.900002"
   cy="60.900002"
   r="5.5999999"
   id="circle1"
   style="fill:#4d4d4d" />
	<path
   d="m 54.5,108.2 c 4.8,-5.1 6.9,-9.6 8.4,-13.6 C 68.6,79.6 58.7,74.8 56.1,73.8 52.8,72.6 48.7,70 46.3,64 43.9,58 48.3,51.6 48.3,51.6 43.2,51 40.7,50 40.7,50 c 0,0 -8,13.1 -4.3,30 3.2,14.2 12.8,23.9 18.1,28.2 z"
   id="path1"
   style="fill:#4d4d4d" />
	<circle
   cx="86.699997"
   cy="60.900002"
   r="5.5999999"
   id="circle2"
   style="fill:#4d4d4d" />
	<path
   d="m 72.5,77 c 2.5,-3.3 2.4,-7.2 3,-13.3 0.6,-6.1 5.4,-10.7 9.5,-13.3 4.1,-2.6 8.5,-3.3 17.6,-6.3 9.1,-3.1 10.2,-15.5 10.2,-15.5 0,0 -6.1,6.2 -12.1,7.8 -4.8,1.3 -10,2.7 -19,0.6 -2.3,-0.5 -5.2,-1.5 -9.2,-1.5 -4,0 -6.9,1 -9.2,1.5 -9.1,2.1 -14.2,0.6 -19,-0.6 -6.1,-1.6 -12.1,-7.8 -12.1,-7.8 0,0 1,12.4 10.2,15.5 9.1,3.1 13.4,3.7 17.6,6.3 4.2,2.6 8.9,7.1 9.5,13.3 0.6,6.1 0.4,10.1 3,13.3 z"
   id="path2"
   style="fill:#4d4d4d" />
	<path
   d="m 72.5,17.3 c 18.9,0 28.7,8.1 28.7,8.1 0,0 -7.2,5.3 -14.1,4 -6.9,-1.3 -8.5,-2.3 -14.5,-2.6 -6.1,0.3 -7.6,1.3 -14.5,2.6 -6.9,1.3 -14.1,-4 -14.1,-4 0,0 9.6,-8.1 28.5,-8.1 z"
   id="path3-7"
   style="fill:#4d4d4d" />
	<path
   d="m 80.4,130.9 c 0.2,-1.3 1.6,-7.7 9.9,-11.3 v 0 c 17.6,-6.9 30.1,-23.7 30.1,-44 0,-9.3 -2.6,-17.9 -7.1,-25.3 3.4,-2.2 5.3,-5.8 6.4,-8.9 6.7,9.3 10.7,20.7 10.7,33 0,28.9 -21.7,52.7 -50,56.5 z"
   id="path4"
   style="fill:#4d4d4d" />
	<path
   d="m 103.9,50 c 0,0 -2.5,1.1 -7.6,1.6 0,0 4.4,6.4 2,12.4 -2.4,6 -6.5,8.5 -9.8,9.8 0,0 -13.8,2.5 -21,31.5 -2,8.1 -4.7,13.1 -7.6,16.1 C 39.6,116 24.5,97.9 24.5,75.6 24.5,66.2 27.1,57.5 31.7,50.1 28.3,47.8 26.5,44 25.5,41 c -6.9,9.4 -11,21 -11,33.5 0,31 25.2,56.3 56.5,57 v 0 c 0,0 0,0 0,0 v 0 c 3.7,-11.1 15.1,-20.3 18.3,-22.7 0,0 0.8,-0.6 0.8,-0.6 C 95.4,104 105,94.3 108.2,80.1 112,63.1 103.9,50 103.9,50 Z"
   id="path5-5"
   style="fill:#4d4d4d" />
</g><g
         id="lettering"
         style="fill:#4d4d4d">
	<path
   d="m 211.1,74.4 c 0,8.5 -2.9,15.6 -8.8,21.5 -5.9,5.8 -12.9,8.7 -21.1,8.7 -8.2,0 -15.3,-3 -21.1,-8.9 -5.8,-5.9 -8.7,-13 -8.7,-21.3 0,-8.4 2.9,-15.6 8.7,-21.5 5.8,-5.9 12.9,-8.8 21.1,-8.8 8,0 14.9,2.9 20.9,8.7 6,5.7 9,13 9,21.6 z m -44.1,0 c 0,4.1 1.4,7.6 4.1,10.4 2.7,2.8 6.1,4.2 10.1,4.2 3.9,0 7.2,-1.4 10.1,-4.2 2.8,-2.8 4.2,-6.2 4.2,-10.4 0,-4 -1.4,-7.4 -4.1,-10.3 -2.8,-2.9 -6.1,-4.4 -10.2,-4.4 -4,0 -7.4,1.4 -10.1,4.3 -2.8,2.8 -4.1,6.3 -4.1,10.4 z"
   id="path6"
   style="fill:#4d4d4d" />
	<path
   d="M 269.6,104.6 251.1,77.8 232.6,104.6 210.5,44.1 H 227 l 9.8,26.6 14.2,-20.5 14.2,20.5 9.6,-26.6 h 16.7 z"
   id="path7-3"
   style="fill:#4d4d4d" />
	<path
   d="M 296.6,104.6 V 44.1 h 15.6 v 45.1 h 22.5 v 15.4 z"
   id="path8"
   style="fill:#4d4d4d" />
	<path
   d="M 356,104.6 H 340.4 V 44.1 H 356 Z"
   id="path9-5"
   style="fill:#4d4d4d" />
	<path
   d="m 377.6,80.8 c -4.8,-1.5 -8.5,-3.9 -11.2,-7.4 -2.7,-3.4 -3.8,-7.5 -3.4,-12.2 0.4,-4.7 2.5,-8.8 6.4,-12.1 3.9,-3.3 8.5,-5 13.8,-5 6.3,0 12.4,2.3 18.4,7 l -9.1,11.7 c -3,-2.2 -5.9,-3.3 -8.8,-3.3 -1.6,0 -2.8,0.3 -3.7,1 -0.9,0.6 -1.4,1.4 -1.3,2.3 0,0.6 0.2,1.2 0.7,1.7 0.5,0.5 1.1,0.9 2,1.2 0.8,0.3 1.7,0.5 2.5,0.7 0.8,0.2 1.8,0.4 2.9,0.6 1.1,0.2 1.9,0.4 2.4,0.5 6,1.5 10.4,4.1 13.1,7.7 2.7,3.7 3.8,7.8 3.4,12.4 -0.5,4.7 -2.6,8.8 -6.4,12.1 -3.8,3.3 -8.4,5 -13.8,5 -6.3,0 -12.4,-2.3 -18.4,-7 L 376.2,86 c 2.9,2.2 5.9,3.3 8.8,3.3 1.5,0 2.7,-0.3 3.6,-1 0.9,-0.6 1.4,-1.4 1.4,-2.3 0,-0.8 -0.4,-1.5 -1.2,-2.1 -0.8,-0.5 -1.6,-0.9 -2.3,-1.1 -0.7,-0.2 -1.7,-0.4 -3.1,-0.6 -1.9,-0.3 -3.9,-0.8 -5.8,-1.4 z"
   id="path10-6"
   style="fill:#4d4d4d" />
	<path
   d="m 428.1,59.7 v 6.8 h 17.3 v 15.6 h -17.3 v 6.8 h 24.4 v 15.6 h -40 V 44.1 h 40 v 15.6 z"
   id="path11-2"
   style="fill:#4d4d4d" />
</g></g></g></svg>
